<?xml version="1.0" standalone="no"?>
<!DOCTYPE svg PUBLIC "-//W3C//DTD SVG 20010904//EN"
 "http://www.w3.org/TR/2001/REC-SVG-20010904/DTD/svg10.dtd">
<svg version="1.0" xmlns="http://www.w3.org/2000/svg"
 width="256.000000pt" height="256.000000pt" viewBox="0 0 256.000000 256.000000"
 preserveAspectRatio="xMidYMid meet">
<metadata>
Created by potrace 1.14, written by Peter Selinger 2001-2017
</metadata>
<g transform="translate(0.000000,256.000000) scale(0.100000,-0.100000)"
fill="#000000" stroke="none">
<path d="M1090 2284 c-115 -16 -134 -20 -162 -34 -51 -27 -325 -201 -348 -222
-14 -13 -57 -68 -95 -123 -38 -55 -89 -128 -113 -163 -41 -59 -46 -74 -83
-250 -22 -103 -40 -200 -40 -217 0 -16 16 -106 36 -200 21 -93 38 -176 39
-183 3 -15 95 -156 183 -280 28 -40 67 -85 86 -101 42 -32 333 -214 350 -217
7 -2 41 -9 77 -17 89 -20 429 -21 524 -1 83 18 85 19 291 148 107 67 173 115
188 137 13 19 65 94 116 167 103 147 94 122 155 426 l26 126 -31 143 c-16 78
-36 170 -43 203 -11 48 -30 85 -88 170 -165 241 -141 216 -323 330 -197 123
-210 131 -266 143 -121 27 -343 34 -479 15z m228 -47 c6 -5 12 -14 12 -20 0
-7 -7 -3 -15 7 -25 33 -17 10 10 -30 25 -37 34 -71 15 -59 -5 3 -10 1 -10 -5
0 -8 -6 -8 -20 0 -11 6 -20 7 -20 2 0 -5 -11 -7 -24 -5 -24 5 -24 6 -11 44 8
22 11 37 6 34 -5 -2 -12 -17 -16 -32 -10 -41 -25 -56 -41 -42 -10 8 -14 8 -14
0 0 -6 -17 -10 -42 -9 -24 1 -37 3 -31 5 7 3 9 11 6 20 -4 9 -2 14 3 11 5 -3
16 1 24 10 13 14 12 15 -3 9 -13 -5 -16 -3 -11 6 15 25 37 46 45 42 4 -3 10
-1 14 5 3 5 17 7 30 4 12 -3 25 -1 29 4 6 11 45 10 64 -1z m115 -19 c-2 -5 3
-8 12 -8 9 0 14 4 10 9 -12 20 60 -10 82 -33 12 -14 36 -33 53 -42 42 -25 38
-35 -12 -30 -24 2 -62 5 -86 5 -32 1 -41 4 -36 14 5 7 0 6 -11 -3 -11 -9 -16
-10 -11 -2 4 7 1 12 -9 12 -10 0 -14 -5 -10 -12 4 -7 -1 -4 -9 6 -9 11 -17 28
-17 38 -2 26 -3 32 -12 45 -5 8 3 11 27 10 19 -1 32 -5 29 -9z m-323 -4 c0 -4
-9 -22 -21 -40 -14 -23 -25 -31 -37 -28 -14 5 -15 4 -2 -5 19 -13 13 -17 -38
-24 -36 -4 -41 -3 -32 9 7 7 10 19 7 26 -4 9 -6 8 -6 -3 -1 -9 -11 -21 -23
-27 -27 -13 -88 -23 -88 -14 0 12 74 56 88 54 7 -2 11 3 10 10 -2 7 3 12 10
11 6 -2 12 1 12 5 0 4 8 8 18 9 31 3 74 12 80 18 7 7 22 6 22 -1z m524 -36
c-3 -5 0 -8 7 -7 14 3 60 -18 69 -31 3 -4 21 -17 40 -30 29 -18 31 -21 10 -16
-14 3 -33 6 -43 6 -9 0 -38 19 -62 41 -45 42 -58 63 -30 53 8 -4 12 -10 9 -16z
m-833 -68 c-13 -11 -28 -20 -35 -20 -6 0 3 9 19 19 39 25 46 25 16 1z m417
-56 c-2 -18 0 -30 4 -28 4 3 8 16 8 30 0 13 3 25 8 25 33 5 123 6 126 1 3 -6
10 -54 21 -166 2 -17 6 -56 10 -86 l7 -55 -197 -3 c-193 -2 -196 -2 -191 18 6
21 10 36 20 83 4 15 11 25 16 22 5 -3 12 -1 15 5 4 6 1 9 -7 8 -17 -4 -15 19
12 124 13 51 16 52 103 54 l49 1 -4 -33z m328 10 c6 -8 15 -14 19 -14 4 0 2 6
-4 14 -11 13 -5 14 36 11 26 -2 55 -4 63 -4 9 -1 27 -30 44 -72 24 -59 27 -72
15 -81 -11 -8 -11 -9 2 -5 12 4 25 -14 52 -74 l36 -79 -45 0 c-28 0 -44 4 -44
13 0 8 -3 9 -8 1 -4 -6 -28 -10 -57 -8 -27 1 -84 3 -126 5 -47 1 -76 6 -77 13
0 6 -3 21 -6 34 -3 13 -1 20 4 17 6 -4 6 4 0 19 -7 20 -6 27 8 35 15 9 14 11
-8 11 -14 1 -19 4 -12 7 6 2 9 10 5 16 -8 14 -10 20 -21 99 -5 32 -7 59 -5 61
9 10 120 -7 129 -19z m-517 -26 c-6 -23 -13 -46 -16 -51 -3 -6 -7 -20 -9 -31
-1 -12 -10 -55 -19 -96 -16 -75 -33 -108 -42 -81 -5 11 -7 11 -14 0 -4 -8 -25
-14 -46 -15 -21 -1 -67 -3 -103 -5 -36 -2 -71 0 -77 4 -8 5 -13 4 -13 -2 0 -6
-9 -11 -20 -11 -21 0 -27 19 -11 36 5 5 39 69 76 142 48 95 72 132 85 132 9 0
33 3 51 6 l34 7 -22 -25 c-13 -13 -23 -28 -23 -33 0 -5 7 1 16 14 21 29 64 47
119 49 l43 2 -9 -42z m809 1 c13 -5 29 -6 35 -2 7 3 9 3 6 -1 -4 -4 4 -18 17
-31 13 -13 24 -29 24 -35 0 -12 -47 -33 -72 -32 -10 0 -18 -4 -18 -10 0 -6 3
-8 7 -5 3 4 15 -5 25 -20 10 -16 18 -23 18 -16 0 6 -4 15 -10 18 -17 11 -11
20 24 36 l34 16 49 -76 c28 -42 60 -94 73 -115 l24 -39 -33 6 c-19 4 -44 7
-57 7 -12 0 -30 7 -38 16 -9 8 -16 11 -16 5 0 -12 -59 -15 -75 -3 -6 4 -34 61
-63 127 -74 167 -69 153 -46 135 12 -9 9 -4 -6 14 l-25 28 50 -7 c28 -4 61
-12 73 -16z m-1141 -29 c-26 -16 -47 -34 -47 -40 0 -13 -27 -13 -35 1 -10 15
33 57 64 62 61 9 64 6 18 -23z m43 6 c0 -3 -9 -20 -20 -39 -16 -28 -25 -33
-45 -29 -18 3 -23 8 -17 19 14 24 82 64 82 49z m1338 -176 c56 -80 85 -130 76
-130 -13 0 -155 204 -170 245 -14 36 10 7 94 -115z m-1458 115 c0 -6 -54 -99
-82 -143 -35 -54 -39 -62 -30 -62 6 0 12 8 16 18 3 9 14 29 23 44 10 14 33 51
51 82 30 52 35 56 60 50 15 -4 29 -8 31 -11 6 -4 -80 -171 -94 -183 -6 -5 -33
-11 -60 -14 -28 -3 -61 -8 -74 -12 -29 -8 -32 -16 62 129 38 59 76 107 83 107
8 0 14 -2 14 -5z m335 -253 c-2 -9 -4 -34 -4 -54 -1 -29 -5 -38 -18 -39 -15
-1 -15 -2 -2 -6 16 -4 17 -14 5 -173 -3 -30 -5 -71 -5 -92 l-1 -36 -181 -1
-182 -2 7 38 c3 21 6 50 6 66 0 15 5 27 11 27 5 0 7 -6 3 -12 -4 -7 -3 -9 1
-5 12 10 15 38 4 31 -5 -3 -9 6 -9 20 0 14 8 30 18 35 10 7 12 11 4 11 -10 0
-12 12 -6 48 3 26 11 52 17 57 7 7 7 5 2 -5 -6 -12 -5 -12 5 -3 7 6 19 9 26 6
8 -3 14 0 14 6 0 6 -3 10 -7 10 -5 -1 -18 -1 -29 0 -20 1 -21 4 -12 41 8 31
15 40 32 39 54 -1 280 12 284 16 9 9 20 -6 17 -23z m452 -42 c1 -36 4 -131 8
-212 l6 -148 -121 0 -120 0 -2 38 -1 37 -4 -37 -4 -38 -98 0 -98 0 3 28 c4 47
14 172 20 277 3 55 7 106 9 112 3 10 51 12 202 10 l198 -2 2 -65z m55 26 c-3
-5 0 -6 6 -3 5 4 8 16 5 27 -5 20 -2 21 73 16 44 -2 102 -5 130 -5 45 -1 51
-4 61 -28 l12 -28 -6 28 c-5 27 -4 28 36 25 22 -2 41 -5 42 -8 0 -3 2 -25 4
-50 1 -25 5 -56 8 -70 4 -14 9 -52 13 -85 7 -68 10 -102 18 -162 l6 -43 -185
0 c-141 0 -185 3 -185 13 0 8 -3 7 -10 -3 -18 -29 -23 2 -26 152 -2 84 -4 153
-4 153 -1 0 -3 27 -5 60 -1 35 1 52 5 40 4 -11 5 -24 2 -29z m587 8 c18 -2 37
-7 42 -10 11 -6 12 -47 2 -41 -5 3 -17 0 -28 -4 -19 -9 -19 -9 1 -5 32 5 41
-4 48 -49 13 -81 18 -112 32 -182 21 -106 22 -103 -36 -103 -41 0 -50 3 -51
18 -1 16 -2 16 -6 0 -4 -15 -16 -18 -74 -18 -38 0 -69 3 -70 8 0 4 -2 23 -5
42 -3 31 -8 66 -30 219 -3 24 1 37 13 47 15 12 15 13 2 8 -17 -5 -29 20 -29
64 0 23 1 23 78 17 42 -3 92 -8 111 -11z m-1463 -16 c-3 -13 -6 -29 -6 -36 0
-10 -12 -12 -47 -8 l-48 6 48 -13 c27 -6 47 -14 44 -17 -3 -3 -8 -30 -12 -60
-3 -30 -10 -80 -16 -110 -10 -59 -17 -107 -18 -127 -1 -9 -23 -13 -77 -13 -57
0 -73 3 -68 13 6 10 4 10 -7 0 -7 -7 -19 -13 -27 -13 -14 0 -14 4 2 85 39 199
51 250 57 253 4 2 5 11 2 21 -3 14 2 20 21 23 29 6 34 -3 11 -22 -8 -7 -15
-22 -15 -34 1 -19 2 -19 11 -4 6 11 16 15 27 11 16 -5 16 -5 0 8 -14 11 -15
17 -5 30 15 19 37 26 91 28 35 1 38 -1 32 -21z m1576 -12 c7 4 8 2 4 -4 -11
-18 -26 -14 -25 6 0 10 3 12 6 4 2 -6 10 -9 15 -6z m74 -196 c18 -90 31 -166
29 -168 -11 -12 -31 9 -33 34 -1 15 -7 33 -13 39 -7 7 -9 5 -5 -5 14 -40 14
-70 0 -70 -8 0 -14 10 -14 23 0 12 -9 67 -19 122 -18 92 -30 157 -32 173 -3
19 3 23 28 20 27 -3 28 -5 59 -168z m1 -390 c-26 -127 -37 -166 -50 -168 -12
-3 -15 2 -11 20 3 13 7 34 9 48 2 14 6 36 9 49 3 13 2 21 -1 17 -7 -6 -8 -12
-18 -66 -9 -51 -11 -55 -19 -69 -5 -8 -4 -16 4 -21 8 -5 9 -10 2 -14 -20 -12
-21 12 -6 95 8 46 19 109 25 139 5 30 13 73 17 95 6 34 12 41 37 45 17 3 31 3
32 0 2 -3 -12 -79 -30 -170z m-1707 163 c0 -5 4 -35 10 -68 5 -33 12 -80 15
-105 4 -25 10 -64 14 -86 8 -41 7 -42 -23 -53 -26 -9 -27 -10 -4 -6 30 6 33 3
43 -44 l7 -34 -53 7 c-57 7 -92 35 -82 65 4 14 4 14 -6 1 -9 -13 -11 -12 -11
4 0 20 0 20 -14 0 -12 -16 -15 -16 -20 -4 -5 13 -66 316 -66 326 0 2 43 4 95
4 52 0 95 -3 95 -7z m327 -1 c-3 -4 -1 -14 4 -22 8 -12 9 -11 7 5 -2 16 3 21
30 23 30 3 32 1 33 -30 1 -34 7 -132 13 -203 1 -22 -1 -48 -6 -57 -4 -9 -4
-18 1 -20 5 -2 11 -26 14 -55 6 -55 -7 -73 -31 -44 -8 9 -10 10 -6 2 6 -11
-12 -13 -112 -6 -65 4 -131 6 -146 6 -28 -1 -29 0 -44 99 -3 25 -8 54 -10 65
-13 69 -15 107 -4 120 8 10 8 15 -1 21 -8 4 -9 3 -5 -4 4 -7 3 -12 -2 -12 -12
0 -21 69 -10 76 4 3 8 11 8 17 0 7 -4 6 -10 -3 -8 -12 -10 -11 -10 7 0 21 4
21 146 22 80 1 143 -2 141 -7z m314 -4 c0 -10 2 -10 6 0 3 9 38 12 124 12
l119 0 -5 -142 c-3 -79 -6 -176 -6 -215 l-1 -73 -104 0 c-76 0 -104 3 -105 13
0 10 -2 10 -6 0 -5 -14 -160 -18 -178 -5 -12 9 -12 5 -20 127 -4 55 -8 116
-10 135 -3 35 -7 139 -6 153 1 4 44 7 96 7 69 0 95 -3 96 -12z m699 5 c0 -4
-4 -37 -9 -73 -5 -36 -12 -90 -16 -120 -9 -86 -11 -91 -26 -101 -10 -6 -11 -9
-1 -9 9 0 11 -12 7 -46 -7 -60 -8 -60 -50 -62 -27 -1 -35 3 -36 16 -1 16 -2
16 -6 0 -3 -14 -16 -18 -56 -19 -29 -1 -87 -2 -130 -4 -79 -3 -79 -3 -74 21 5
30 -1 31 -12 2 -6 -16 -8 -4 -7 40 1 55 3 62 19 58 13 -3 17 2 16 22 -1 17 -3
21 -6 10 -2 -10 -9 -18 -14 -18 -6 0 -8 47 -5 123 2 67 5 132 5 144 1 21 3 22
201 23 110 0 200 -3 200 -7z m181 -5 c0 -10 2 -10 6 0 3 7 24 12 55 12 l50 0
-6 -37 c-3 -21 -15 -90 -26 -153 -12 -63 -24 -132 -27 -153 -3 -21 -8 -39 -12
-41 -3 -2 -30 -6 -58 -10 -39 -4 -53 -3 -53 6 0 10 -2 10 -8 0 -5 -7 -32 -15
-61 -19 l-52 -6 5 44 c2 24 5 48 5 52 1 5 6 5 11 2 6 -3 10 -2 10 4 0 5 -4 11
-9 13 -7 2 0 83 23 248 3 19 5 38 6 43 0 13 140 8 141 -5z m-1593 -357 c15
-22 14 -22 -14 -15 -37 9 -38 10 -30 29 8 21 25 15 44 -14z m1691 -63 c-7 -13
-32 -52 -57 -88 -25 -36 -59 -84 -75 -108 -16 -24 -32 -41 -34 -38 -9 9 150
256 165 256 10 0 10 -5 1 -22z m-1653 -1 c1 -1 13 -23 28 -49 16 -27 30 -48
33 -48 3 0 -7 20 -21 44 -14 25 -26 47 -26 50 0 9 75 -6 86 -18 13 -12 96
-168 92 -171 -2 -1 -15 -5 -30 -9 -25 -6 -31 -2 -59 44 -17 27 -33 50 -35 50
-6 0 -3 -5 33 -63 22 -35 23 -57 4 -57 -4 0 -39 48 -78 108 -96 146 -91 136
-57 128 16 -4 29 -8 30 -9z m1559 -25 c-10 -15 -25 -38 -33 -52 -55 -91 -85
-130 -100 -130 -15 0 -15 -2 -2 -10 13 -9 10 -15 -18 -40 -18 -17 -27 -30 -20
-30 19 0 1 -11 -24 -15 -12 -1 -43 -8 -68 -14 -57 -13 -73 -14 -65 -1 3 5 8
18 10 27 2 10 28 73 57 141 39 91 58 124 73 127 18 3 119 16 184 22 23 3 23 3
6 -25z m-1172 -7 c21 -1 40 -5 41 -6 2 -2 8 -13 15 -24 11 -19 12 -18 5 4 -4
17 -2 22 7 19 16 -5 41 -97 33 -118 -5 -12 -8 -11 -14 5 -5 11 -9 14 -9 7 -1
-8 8 -27 19 -42 25 -35 50 -104 50 -137 0 -24 -2 -24 -52 -18 -42 6 -60 14
-86 41 -18 19 -36 34 -39 34 -4 0 9 -16 28 -36 l34 -36 -40 6 c-22 3 -47 5
-56 6 -17 0 -83 115 -74 130 11 17 24 11 61 -27 21 -21 29 -27 18 -13 -10 14
-21 27 -24 30 -3 3 -16 19 -29 35 -16 22 -22 25 -19 11 1 -10 -2 -21 -9 -23
-10 -4 -93 141 -93 161 0 5 142 -1 233 -9z m822 -19 c-5 -19 -4 -19 6 2 10 18
21 22 56 22 l43 0 -19 -37 c-21 -43 -45 -98 -86 -197 -16 -37 -34 -70 -39 -71
-6 -2 -35 -6 -64 -8 -44 -3 -52 -1 -47 12 5 13 3 13 -12 -1 -11 -10 -40 -17
-73 -19 -61 -3 -57 -10 -46 80 12 100 16 111 42 107 14 -3 22 -1 19 5 -4 5
-10 7 -14 4 -5 -2 -17 3 -27 11 -10 9 -14 13 -8 10 7 -3 14 5 16 19 3 13 1 22
-3 19 -4 -2 -6 5 -4 17 6 32 17 36 98 38 39 1 72 3 73 4 1 1 23 2 48 3 42 1
46 -1 41 -20z m-515 0 c0 -8 2 -8 8 0 4 7 44 10 102 10 l95 -1 -1 -35 c-2 -60
-21 -232 -30 -261 -3 -12 -18 -15 -69 -15 l-65 1 0 32 c0 18 -3 33 -8 33 -4 0
-7 -15 -7 -32 l0 -33 -50 2 c-27 1 -57 2 -66 2 -16 1 -43 84 -53 161 -2 14 -6
32 -9 40 -13 36 -24 100 -19 105 11 11 172 3 172 -9z m-190 -131 c0 -8 -2 -15
-4 -15 -2 0 -6 7 -10 15 -3 8 -1 15 4 15 6 0 10 -7 10 -15z m-280 -65 c11 -22
18 -40 14 -40 -4 0 -1 -6 5 -14 9 -11 3 -11 -41 0 -53 14 -88 38 -88 60 0 25
19 24 49 -2 17 -14 31 -22 31 -17 0 4 -9 14 -20 21 -27 17 -25 32 5 32 19 0
29 -10 45 -40z m82 -132 c13 -13 17 -18 8 -12 -8 6 -24 16 -35 22 -11 6 -15
12 -8 12 7 0 22 -10 35 -22z m967 5 c-6 -7 -15 -10 -20 -8 -4 3 -17 -5 -29
-17 -12 -13 -24 -23 -28 -24 -29 -3 -61 -18 -59 -27 1 -6 -9 -13 -22 -15 -19
-3 -13 6 33 47 32 27 70 51 84 53 50 6 53 6 41 -9z m-801 -15 c7 -7 12 -7 12
-1 0 6 16 7 37 4 29 -5 43 -16 69 -52 21 -30 27 -46 18 -46 -8 0 -14 5 -14 10
0 6 -3 7 -7 4 -3 -4 -13 -1 -21 6 -9 6 -13 7 -10 2 10 -17 -42 -12 -52 5 -6
10 -10 11 -10 3 0 -9 -7 -7 -20 4 -20 17 -20 18 -1 25 23 8 39 6 68 -10 12 -7
28 -12 35 -11 7 0 0 5 -15 11 -24 8 -26 12 -15 26 10 14 10 15 -1 5 -7 -6 -20
-9 -27 -6 -8 3 -28 0 -45 -6 -28 -10 -36 -8 -73 20 l-41 30 50 -7 c28 -3 56
-11 63 -16z m639 -6 c-10 -11 -28 -18 -44 -17 -16 1 -20 0 -10 -2 9 -2 15 -9
11 -14 -3 -5 -10 -6 -16 -3 -6 4 -8 2 -5 -3 8 -12 -27 -46 -36 -36 -4 3 -7 1
-7 -6 0 -7 -4 -10 -9 -7 -4 3 -22 1 -39 -3 -20 -6 -34 -5 -41 2 -8 8 -11 8
-11 -1 0 -6 -7 -9 -16 -5 -11 4 -6 11 23 29 21 13 34 24 30 24 -4 0 -20 -8
-34 -17 -26 -17 -27 -17 -19 2 5 11 11 28 13 38 3 9 13 17 22 18 50 2 114 9
117 12 2 2 22 4 46 6 41 2 41 1 25 -17z m-262 -17 c-4 -11 -7 -26 -7 -32 -1
-7 -5 -13 -9 -13 -4 0 -16 -14 -27 -31 l-19 -31 -18 56 c-10 31 -20 55 -22 52
-3 -2 3 -25 11 -50 21 -61 20 -64 -7 -38 -15 14 -27 18 -33 12 -23 -23 -95 39
-85 74 1 5 -2 12 -8 15 -5 3 45 6 110 6 115 0 120 -1 114 -20z m-18 -80 c-4
-8 -11 -15 -17 -15 -6 0 -6 7 2 20 14 22 24 19 15 -5z"/>
<path d="M1200 2215 c-7 -9 -8 -15 -2 -15 5 0 12 7 16 15 3 8 4 15 2 15 -2 0
-9 -7 -16 -15z"/>
<path d="M1148 2133 c6 -2 18 -2 25 0 6 3 1 5 -13 5 -14 0 -19 -2 -12 -5z"/>
<path d="M1460 2202 c0 -4 8 -8 18 -8 9 -1 26 -4 37 -8 13 -5 11 -2 -5 8 -27
17 -50 20 -50 8z"/>
<path d="M1430 2180 c0 -5 5 -10 11 -10 5 0 7 5 4 10 -3 6 -8 10 -11 10 -2 0
-4 -4 -4 -10z"/>
<path d="M1460 2165 c0 -20 15 -32 37 -30 33 2 39 13 7 13 -14 0 -30 6 -35 13
-5 8 -9 10 -9 4z"/>
<path d="M1050 2184 c-14 -8 -18 -14 -10 -14 8 1 24 7 34 15 24 19 10 18 -24
-1z"/>
<path d="M1006 2161 c-3 -5 1 -11 9 -15 8 -3 15 -1 15 4 0 13 -18 22 -24 11z"/>
<path d="M1210 1990 c0 -11 2 -20 4 -20 2 0 6 9 9 20 3 11 1 20 -4 20 -5 0 -9
-9 -9 -20z"/>
<path d="M1200 1930 c0 -22 -5 -30 -17 -31 -16 0 -16 -1 -2 -7 9 -4 15 -15 13
-25 -1 -9 1 -15 5 -13 9 6 15 106 6 106 -3 0 -5 -13 -5 -30z"/>
<path d="M1100 1900 c-12 -7 -10 -9 7 -7 12 0 19 5 17 9 -6 10 -6 10 -24 -2z"/>
<path d="M1268 1893 c7 -3 16 -2 19 1 4 3 -2 6 -13 5 -11 0 -14 -3 -6 -6z"/>
<path d="M1308 1893 c7 -3 16 -2 19 1 4 3 -2 6 -13 5 -11 0 -14 -3 -6 -6z"/>
<path d="M1590 2013 c0 -6 8 -17 18 -24 16 -13 16 -13 2 6 -8 11 -16 22 -17
24 -2 2 -3 0 -3 -6z"/>
<path d="M1630 1950 c6 -11 13 -20 16 -20 2 0 0 9 -6 20 -6 11 -13 20 -16 20
-2 0 0 -9 6 -20z"/>
<path d="M1668 1885 c9 -19 17 -33 19 -31 6 5 -19 66 -27 66 -4 0 0 -16 8 -35z"/>
<path d="M1530 1898 c0 -4 4 -8 9 -8 6 0 12 4 15 8 3 5 -1 9 -9 9 -8 0 -15 -4
-15 -9z"/>
<path d="M1618 1903 c7 -3 16 -2 19 1 4 3 -2 6 -13 5 -11 0 -14 -3 -6 -6z"/>
<path d="M1690 1825 c0 -8 4 -15 10 -15 5 0 7 7 4 15 -4 8 -8 15 -10 15 -2 0
-4 -7 -4 -15z"/>
<path d="M806 1965 c-22 -24 -42 -42 -46 -40 -3 2 -6 -5 -6 -16 0 -19 1 -19
16 1 13 17 18 18 30 8 12 -11 12 -11 2 3 -10 13 -8 20 9 35 18 16 45 55 37 53
-2 0 -21 -20 -42 -44z"/>
<path d="M973 1925 c-13 -15 -17 -25 -9 -25 7 0 18 11 24 25 14 31 13 31 -15
0z"/>
<path d="M956 1875 c-9 -26 -7 -32 5 -12 6 10 9 21 6 23 -2 3 -7 -2 -11 -11z"/>
<path d="M712 1810 c-18 -29 -15 -38 4 -12 9 13 14 25 12 27 -2 2 -9 -5 -16
-15z"/>
<path d="M1770 2001 c0 -5 5 -13 10 -16 6 -3 10 -2 10 4 0 5 -4 13 -10 16 -5
3 -10 2 -10 -4z"/>
<path d="M1800 1976 c0 -2 8 -10 18 -17 15 -13 16 -12 3 4 -13 16 -21 21 -21
13z"/>
<path d="M1798 1923 c7 -3 16 -2 19 1 4 3 -2 6 -13 5 -11 0 -14 -3 -6 -6z"/>
<path d="M1900 1824 c0 -6 7 -19 16 -30 14 -18 14 -18 3 6 -14 31 -19 36 -19
24z"/>
<path d="M903 1685 c-3 -9 -3 -18 -1 -21 3 -3 8 4 11 16 6 23 -1 27 -10 5z"/>
<path d="M649 1673 c-13 -16 -12 -17 4 -4 9 7 17 15 17 17 0 8 -8 3 -21 -13z"/>
<path d="M887 1623 c-4 -3 -7 -18 -6 -32 0 -16 3 -20 6 -11 3 8 11 18 17 22 7
5 7 8 -2 8 -7 0 -10 5 -7 10 7 11 2 13 -8 3z"/>
<path d="M703 1613 c9 -2 23 -2 30 0 6 3 -1 5 -18 5 -16 0 -22 -2 -12 -5z"/>
<path d="M750 1609 c0 -5 5 -7 10 -4 6 3 10 8 10 11 0 2 -4 4 -10 4 -5 0 -10
-5 -10 -11z"/>
<path d="M815 1610 c5 -8 42 -6 50 1 2 3 -8 5 -25 5 -16 0 -27 -3 -25 -6z"/>
<path d="M873 1489 c-2 -23 3 -25 10 -4 4 8 3 16 -1 19 -4 3 -9 -4 -9 -15z"/>
<path d="M871 1444 c0 -11 3 -14 6 -6 3 7 2 16 -1 19 -3 4 -6 -2 -5 -13z"/>
<path d="M863 1401 c0 -11 5 -18 9 -15 4 3 5 11 1 19 -7 21 -12 19 -10 -4z"/>
<path d="M857 1355 c-4 -8 -3 -16 1 -19 4 -3 9 4 9 15 2 23 -3 25 -10 4z"/>
<path d="M583 1335 c-3 -9 -3 -18 -1 -21 3 -3 8 4 11 16 6 23 -1 27 -10 5z"/>
<path d="M1181 1634 c0 -11 3 -14 6 -6 3 7 2 16 -1 19 -3 4 -6 -2 -5 -13z"/>
<path d="M1045 1600 c3 -5 8 -10 11 -10 2 0 4 5 4 10 0 6 -5 10 -11 10 -5 0
-7 -4 -4 -10z"/>
<path d="M1070 1606 c0 -2 7 -6 15 -10 8 -3 15 -1 15 4 0 6 -7 10 -15 10 -8 0
-15 -2 -15 -4z"/>
<path d="M1136 1598 c3 -5 10 -6 15 -3 13 9 11 12 -6 12 -8 0 -12 -4 -9 -9z"/>
<path d="M1174 1530 c0 -44 3 -74 7 -69 3 6 5 32 4 57 -2 26 3 56 10 67 11 18
10 21 -4 22 -14 1 -17 -10 -17 -77z"/>
<path d="M1306 1598 c3 -5 10 -6 15 -3 13 9 11 12 -6 12 -8 0 -12 -4 -9 -9z"/>
<path d="M1173 1415 c0 -8 4 -12 9 -9 5 3 6 10 3 15 -9 13 -12 11 -12 -6z"/>
<path d="M1740 1656 c0 -2 8 -10 18 -17 15 -13 16 -12 3 4 -13 16 -21 21 -21
13z"/>
<path d="M1675 1610 c-17 -8 -17 -9 7 -7 15 1 24 5 22 9 -3 4 -6 8 -7 7 -1 0
-11 -4 -22 -9z"/>
<path d="M1727 1607 c-8 -6 -8 -7 3 -4 8 2 23 0 33 -5 12 -6 17 -5 17 5 0 14
-34 17 -53 4z"/>
<path d="M1795 1610 c3 -5 8 -10 11 -10 2 0 4 5 4 10 0 6 -5 10 -11 10 -5 0
-7 -4 -4 -10z"/>
<path d="M1477 1602 c-2 -4 0 -23 4 -42 l8 -35 -3 38 c-2 32 1 38 15 34 9 -3
22 -1 28 3 7 4 -1 7 -18 8 -17 0 -32 -2 -34 -6z"/>
<path d="M1588 1603 c7 -3 16 -2 19 1 4 3 -2 6 -13 5 -11 0 -14 -3 -6 -6z"/>
<path d="M1628 1603 c7 -3 16 -2 19 1 4 3 -2 6 -13 5 -11 0 -14 -3 -6 -6z"/>
<path d="M1770 1540 c0 -5 5 -10 11 -10 5 0 7 5 4 10 -3 6 -8 10 -11 10 -2 0
-4 -4 -4 -10z"/>
<path d="M1782 1441 c1 -16 5 -28 9 -26 6 5 0 55 -7 55 -3 0 -3 -13 -2 -29z"/>
<path d="M1485 1449 c-4 -6 -5 -12 -2 -15 2 -3 7 2 10 11 7 17 1 20 -8 4z"/>
<path d="M1492 1400 c0 -14 2 -19 5 -12 2 6 2 18 0 25 -3 6 -5 1 -5 -13z"/>
<path d="M1791 1364 c0 -11 3 -14 6 -6 3 7 2 16 -1 19 -3 4 -6 -2 -5 -13z"/>
<path d="M1492 1350 c0 -14 2 -19 5 -12 2 6 2 18 0 25 -3 6 -5 1 -5 -13z"/>
<path d="M1993 1648 c4 -11 0 -18 -11 -20 -11 -3 -8 -6 10 -10 19 -3 32 0 40
10 11 13 11 14 -1 7 -9 -5 -19 -2 -29 11 -12 15 -14 16 -9 2z"/>
<path d="M1930 1620 c0 -5 7 -7 15 -4 8 4 15 8 15 10 0 2 -7 4 -15 4 -8 0 -15
-4 -15 -10z"/>
<path d="M2012 1570 c0 -14 2 -19 5 -12 2 6 2 18 0 25 -3 6 -5 1 -5 -13z"/>
<path d="M420 1580 c0 -5 5 -10 11 -10 5 0 7 5 4 10 -3 6 -8 10 -11 10 -2 0
-4 -4 -4 -10z"/>
<path d="M416 1543 c-6 -14 -5 -15 5 -6 7 7 10 15 7 18 -3 3 -9 -2 -12 -12z"/>
<path d="M392 1414 c-1 -13 0 -24 2 -24 7 0 14 40 7 44 -4 3 -8 -6 -9 -20z"/>
<path d="M382 1354 c-1 -13 0 -24 2 -24 7 0 14 40 7 44 -4 3 -8 -6 -9 -20z"/>
<path d="M2174 1573 c13 -47 16 -61 22 -93 3 -19 7 -42 9 -50 2 -8 4 -21 4
-27 1 -7 6 -13 12 -13 5 0 7 4 4 10 -6 10 -10 27 -21 85 -2 17 -9 44 -13 62
-5 17 -6 34 -3 37 3 3 0 6 -7 6 -7 0 -10 -8 -7 -17z"/>
<path d="M2220 1221 c-13 -25 -13 -31 1 -31 5 0 7 5 4 10 -3 6 -2 10 3 10 5 0
9 7 9 15 0 20 -4 19 -17 -4z"/>
<path d="M2216 1171 c-8 -12 -19 -87 -12 -81 3 3 8 21 11 39 3 19 8 38 11 43
3 4 3 8 0 8 -3 0 -7 -4 -10 -9z"/>
<path d="M379 1219 c5 -15 7 -29 5 -32 -3 -3 -1 -8 5 -11 13 -8 4 45 -10 59
-7 7 -7 1 0 -16z"/>
<path d="M415 1000 c3 -5 8 -10 11 -10 2 0 4 5 4 10 0 6 -5 10 -11 10 -5 0 -7
-4 -4 -10z"/>
<path d="M425 971 c-3 -5 -2 -12 3 -15 5 -3 9 1 9 9 0 17 -3 19 -12 6z"/>
<path d="M475 920 c-8 -13 5 -13 25 0 13 8 13 10 -2 10 -9 0 -20 -4 -23 -10z"/>
<path d="M867 1119 c4 -13 8 -18 11 -10 2 7 -1 18 -6 23 -8 8 -9 4 -5 -13z"/>
<path d="M872 1066 c1 -14 5 -23 9 -20 7 4 0 44 -7 44 -2 0 -3 -11 -2 -24z"/>
<path d="M610 1025 c0 -5 5 -17 10 -25 5 -8 10 -10 10 -5 0 6 -5 17 -10 25 -5
8 -10 11 -10 5z"/>
<path d="M810 949 c-22 -6 -21 -7 8 -6 19 1 35 4 37 8 5 8 -14 7 -45 -2z"/>
<path d="M875 949 c-4 -5 3 -8 14 -6 28 4 34 12 11 14 -11 1 -22 -2 -25 -8z"/>
<path d="M627 934 c2 -7 11 -10 19 -7 19 7 18 10 -5 16 -13 3 -18 1 -14 -9z"/>
<path d="M675 940 c-3 -5 -1 -10 4 -10 6 0 11 5 11 10 0 6 -2 10 -4 10 -3 0
-8 -4 -11 -10z"/>
<path d="M713 943 c9 -2 23 -2 30 0 6 3 -1 5 -18 5 -16 0 -22 -2 -12 -5z"/>
<path d="M890 921 c0 -6 4 -13 10 -16 6 -3 7 1 4 9 -7 18 -14 21 -14 7z"/>
<path d="M906 877 c3 -10 9 -15 12 -12 3 3 0 11 -7 18 -10 9 -11 8 -5 -6z"/>
<path d="M1173 1135 c0 -8 4 -12 9 -9 5 3 6 10 3 15 -9 13 -12 11 -12 -6z"/>
<path d="M1174 1050 c0 -33 3 -60 7 -60 7 0 5 107 -2 114 -3 3 -5 -22 -5 -54z"/>
<path d="M1166 961 c-3 -5 0 -11 7 -13 17 -7 38 2 31 13 -7 12 -31 12 -38 0z"/>
<path d="M1231 960 c-9 -5 -4 -7 13 -7 29 0 32 2 13 10 -8 3 -20 2 -26 -3z"/>
<path d="M1291 960 c-9 -5 -4 -7 13 -7 29 0 32 2 13 10 -8 3 -20 2 -26 -3z"/>
<path d="M1018 953 c7 -3 16 -2 19 1 4 3 -2 6 -13 5 -11 0 -14 -3 -6 -6z"/>
<path d="M1181 914 c0 -11 3 -14 6 -6 3 7 2 16 -1 19 -3 4 -6 -2 -5 -13z"/>
<path d="M1491 1214 c0 -11 3 -14 6 -6 3 7 2 16 -1 19 -3 4 -6 -2 -5 -13z"/>
<path d="M1492 1170 c0 -14 2 -19 5 -12 2 6 2 18 0 25 -3 6 -5 1 -5 -13z"/>
<path d="M1780 1140 c0 -5 5 -10 11 -10 5 0 7 5 4 10 -3 6 -8 10 -11 10 -2 0
-4 -4 -4 -10z"/>
<path d="M1485 1129 c-4 -6 -5 -12 -2 -15 2 -3 7 2 10 11 7 17 1 20 -8 4z"/>
<path d="M1489 1098 c-5 -18 -6 -38 -1 -34 7 8 12 36 6 36 -2 0 -4 -1 -5 -2z"/>
<path d="M1781 1074 c0 -11 3 -14 6 -6 3 7 2 16 -1 19 -3 4 -6 -2 -5 -13z"/>
<path d="M1481 1034 c0 -11 3 -14 6 -6 3 7 2 16 -1 19 -3 4 -6 -2 -5 -13z"/>
<path d="M1773 1035 c0 -8 4 -12 9 -9 5 3 6 10 3 15 -9 13 -12 11 -12 -6z"/>
<path d="M1771 974 c0 -11 3 -14 6 -6 3 7 2 16 -1 19 -3 4 -6 -2 -5 -13z"/>
<path d="M1598 953 c7 -3 16 -2 19 1 4 3 -2 6 -13 5 -11 0 -14 -3 -6 -6z"/>
<path d="M1636 948 c3 -5 10 -6 15 -3 13 9 11 12 -6 12 -8 0 -12 -4 -9 -9z"/>
<path d="M1675 950 c-2 -3 9 -6 25 -6 17 0 27 2 25 5 -8 7 -45 9 -50 1z"/>
<path d="M1750 949 c0 -13 14 -17 35 -9 17 6 16 7 -8 12 -15 3 -27 2 -27 -3z"/>
<path d="M1471 894 c0 -11 3 -14 6 -6 3 7 2 16 -1 19 -3 4 -6 -2 -5 -13z"/>
<path d="M1741 884 c0 -11 3 -14 6 -6 3 7 2 16 -1 19 -3 4 -6 -2 -5 -13z"/>
<path d="M2045 1189 c-4 -6 -5 -12 -2 -15 2 -3 7 2 10 11 7 17 1 20 -8 4z"/>
<path d="M2010 970 c0 -10 -8 -24 -17 -29 -11 -6 -13 -11 -5 -11 10 0 10 -5 2
-22 -11 -23 -11 -23 5 -3 9 11 21 19 26 17 6 -1 7 3 3 10 -5 7 -7 23 -5 36 1
12 0 22 -3 22 -3 0 -6 -9 -6 -20z"/>
<path d="M1923 933 c9 -2 25 -2 35 0 9 3 1 5 -18 5 -19 0 -27 -2 -17 -5z"/>
<path d="M2040 926 c0 -7 40 -14 44 -7 3 4 -6 8 -20 9 -13 1 -24 0 -24 -2z"/>
<path d="M1845 639 c-16 -22 -47 -56 -69 -76 -23 -20 -32 -30 -21 -22 11 7 36
28 57 47 20 19 41 31 47 28 6 -4 11 -2 11 3 0 6 -5 11 -10 11 -6 0 -3 11 6 25
27 41 9 28 -21 -16z"/>
<path d="M1790 636 c0 -2 7 -7 16 -10 8 -3 12 -2 9 4 -6 10 -25 14 -25 6z"/>
<path d="M727 715 c9 -19 18 -33 21 -31 4 5 -26 66 -33 66 -3 0 3 -16 12 -35z"/>
<path d="M915 649 c-3 -4 2 -6 10 -5 21 3 28 13 10 13 -9 0 -18 -4 -20 -8z"/>
<path d="M1686 723 c-6 -14 -5 -15 5 -6 7 7 10 15 7 18 -3 3 -9 -2 -12 -12z"/>
<path d="M1675 689 c-4 -6 -5 -12 -2 -15 2 -3 7 2 10 11 7 17 1 20 -8 4z"/>
<path d="M1548 653 c7 -3 16 -2 19 1 4 3 -2 6 -13 5 -11 0 -14 -3 -6 -6z"/>
<path d="M1580 656 c0 -2 7 -7 16 -10 8 -3 12 -2 9 4 -6 10 -25 14 -25 6z"/>
<path d="M1634 646 c13 -11 23 -12 31 -6 7 5 14 9 16 7 2 -1 0 3 -5 8 -5 7
-10 6 -13 -2 -3 -10 -10 -10 -26 -2 -21 10 -21 9 -3 -5z"/>
<path d="M1571 527 c-13 -21 -12 -21 5 -5 10 10 16 20 13 22 -3 3 -11 -5 -18
-17z"/>
<path d="M1192 730 c0 -14 2 -19 5 -12 2 6 2 18 0 25 -3 6 -5 1 -5 -13z"/>
<path d="M1095 660 c-3 -5 -1 -10 4 -10 6 0 11 5 11 10 0 6 -2 10 -4 10 -3 0
-8 -4 -11 -10z"/>
<path d="M1156 658 c3 -5 10 -6 15 -3 13 9 11 12 -6 12 -8 0 -12 -4 -9 -9z"/>
<path d="M1190 663 c0 -5 5 -15 10 -23 8 -12 10 -11 10 8 0 12 -4 22 -10 22
-5 0 -10 -3 -10 -7z"/>
<path d="M1306 658 c3 -5 10 -6 15 -3 13 9 11 12 -6 12 -8 0 -12 -4 -9 -9z"/>
<path d="M1346 658 c3 -5 10 -6 15 -3 13 9 11 12 -6 12 -8 0 -12 -4 -9 -9z"/>
<path d="M1207 582 c7 -50 15 -56 11 -8 -1 20 -5 39 -9 42 -4 2 -5 -13 -2 -34z"/>
<path d="M710 540 c0 -5 5 -10 11 -10 5 0 7 5 4 10 -3 6 -8 10 -11 10 -2 0 -4
-4 -4 -10z"/>
<path d="M1010 360 c0 -5 5 -10 11 -10 5 0 7 5 4 10 -3 6 -8 10 -11 10 -2 0
-4 -4 -4 -10z"/>
<path d="M1475 410 c3 -5 8 -10 11 -10 2 0 4 5 4 10 0 6 -5 10 -11 10 -5 0 -7
-4 -4 -10z"/>
<path d="M1450 389 c0 -5 5 -7 10 -4 6 3 10 8 10 11 0 2 -4 4 -10 4 -5 0 -10
-5 -10 -11z"/>
<path d="M1473 363 c-13 -2 -23 -8 -23 -13 0 -5 14 -4 30 1 27 10 42 21 23 18
-5 -1 -18 -4 -30 -6z"/>
<path d="M1155 380 c10 -11 20 -20 23 -20 3 0 -3 9 -13 20 -10 11 -20 20 -23
20 -3 0 3 -9 13 -20z"/>
</g>
</svg>
